<?xml version="1.0" encoding="utf-8"?>
<!-- Generator: Adobe Illustrator 22.0.0, SVG Export Plug-In . SVG Version: 6.00 Build 0)  -->
<svg version="1.1" id="Capa_1" xmlns="http://www.w3.org/2000/svg" xmlns:xlink="http://www.w3.org/1999/xlink" x="0px" y="0px"
	 viewBox="0 0 14.4 27.4" style="enable-background:new 0 0 14.4 27.4;" xml:space="preserve">
<g>
	<g>
		<path d="M0.7,26.8c3.8-13.8,0,0,3.8-13.8c-2.4-1-4-3.3-4-6c0-3.6,2.9-6.4,6.4-6.4s6.4,2.9,6.4,6.4c0,2.4-1.3,4.5-3.3,5.6
			c3.7,14.2,3.7,14.2,3.7,14.2S1.2,26.8,0.7,26.8z"/>
		<path d="M14.4,27.3H0.1l3.9-14C1.5,12.2,0,9.7,0,7.1C0,3.2,3.1,0.1,7,0.1c3.8,0,6.9,3.1,6.9,6.9c0,2.4-1.2,4.6-3.2,5.9L14.4,27.3z
			 M1.4,26.3h11.7L9.5,12.4l0.3-0.2c1.9-1,3.1-3,3.1-5.2c0-3.3-2.7-5.9-5.9-5.9C3.7,1.1,1,3.8,1,7.1c0,2.4,1.5,4.6,3.7,5.5l0.4,0.2
			L1.4,26.3z"/>
	</g>
</g>
</svg>
