<?xml version="1.0" encoding="utf-8"?>
<!-- Generator: Adobe Illustrator 22.0.0, SVG Export Plug-In . SVG Version: 6.00 Build 0)  -->
<svg version="1.1" id="Layer_1" xmlns="http://www.w3.org/2000/svg" xmlns:xlink="http://www.w3.org/1999/xlink" x="0px" y="0px"
	 viewBox="0 0 600 600" style="enable-background:new 0 0 600 600;" xml:space="preserve">
<style type="text/css">
	.st0{fill:none;stroke:#000000;stroke-width:12;stroke-miterlimit:10;}
</style>
<path class="st0" d="M500,489.1c0,13.3-10.7,24-24,24H360c-6.6,0-12-5.4-12-12v-112c0-6.6-5.4-12-12-12h-72c-6.6,0-12,5.4-12,12v112
	c0,6.6-5.4,12-12,12H124c-13.3,0-24-10.7-24-24v-190l192.4-158.4c4.4-3.6,10.8-3.6,15.3,0L500,299.1V489.1z M583.6,284.9L500,216
	V77.5c0-6.6-5.4-12-12-12h-56c-6.6,0-12,5.4-12,12v72.6l-89.5-73.7c-17.7-14.6-43.3-14.6-61,0L16.4,284.9
	c-5.1,4.2-5.8,11.8-1.6,16.9l25.5,31c4.2,5.1,11.8,5.8,16.9,1.6l235.2-193.7c4.4-3.6,10.8-3.6,15.3,0l235.2,193.7
	c5.1,4.2,12.7,3.5,16.9-1.6l25.5-31C589.5,296.6,588.7,289.1,583.6,284.9z"/>
</svg>
