<?xml version="1.0" encoding="utf-8"?>
<!-- Generator: Adobe Illustrator 22.0.0, SVG Export Plug-In . SVG Version: 6.00 Build 0)  -->
<svg version="1.1" id="Layer_1" xmlns="http://www.w3.org/2000/svg" xmlns:xlink="http://www.w3.org/1999/xlink" x="0px" y="0px"
	 viewBox="0 0 850.4 850.4" style="enable-background:new 0 0 850.4 850.4;" xml:space="preserve">
<path d="M41.2,438.4c1.8-0.7,2.4-2.5,3.3-4c2.2-3.4,5.2-5.3,9.3-5.5c6.4-0.3,11.7,4,12.4,10.4c0.3,2.6,0.2,5.3,0.2,8
	c0,122.1,0,244.1,0,366.2c0,2.9,0,5.7,0,8.9c1.3,0.3,2.3,0.9,3.3,0.9c22.9,0,45.7,0,68.6,0c0.6,0,1.3-0.3,2.3-0.5
	c0.2-1.2,0.5-2.4,0.5-3.7c0.1-2.2,0-4.4,0-6.7c0-112.7,0-225.5,0-338.2c0-2.2-0.1-4.4,0.1-6.7c0.5-7,5-11.4,11.9-11.8
	c1.5-0.1,3.1,0,4.7,0c75.2,0,150.5,0,225.7,0c1.8,0,3.6-0.1,5.3,0.1c5.8,0.4,10,4,11,9.7c0.4,2.2,0.4,4.4,0.4,6.6
	c0,17.1,0,34.2,0,51.3c0,96.8,0,193.5,0,290.3c0,2.9,0,5.7,0,8.9c1.6,0.3,2.9,0.7,4.1,0.7c22,0,43.9,0,65.9,0c1.3,0,2.6-0.2,4.2-0.4
	c0.2-1.5,0.5-2.7,0.5-4c0.1-2.2,0-4.4,0-6.7c0-121.6,0-243.2,0-364.8c0-2.7-0.1-5.3,0.1-8c0.5-5.7,4.8-9.9,10.3-10.4
	c6.1-0.6,11,2.7,12.6,8.5c0.4,1.5,0.6,3,0.7,4.6c0.1,2,0,4,0,6c0,126.7,0,253.4,0,380.1c0,2.4,0.1,4.9-0.1,7.3
	c-0.7,7-5.2,11.2-12.3,11.5c-1.3,0.1-2.7,0-4,0c-30,0-59.9,0-89.9,0c-1.6,0-3.1,0.1-4.7-0.1c-6.7-0.6-11-5-11.4-11.6
	c-0.1-2.2,0-4.4,0-6.7c0-113.2,0-226.4,0-339.5c0-2.9,0-5.7,0-8.9c-1.6-0.3-2.8-0.6-4.1-0.7c-1.5-0.1-3.1,0-4.7,0
	c-64.8,0-129.6,0-194.4,0c-2.6,0-5.3-0.3-8.2,0.6c-0.1,2.6-0.3,5-0.3,7.4c0,25.7,0,51.5,0,77.2c0,88.1,0,176.2,0,264.3
	c0,2.2,0.1,4.4-0.1,6.7c-0.5,6.3-4.7,10.7-11,11.4c-1.3,0.1-2.7,0.1-4,0.1c-30.6,0-61.2,0-91.9,0c-0.7,0-1.3,0-2,0
	c-5.3,0.1-9.5-1.8-12.1-6.7c-0.6-1.2-1.3-2.3-2.8-2.5C41.2,704.8,41.2,571.6,41.2,438.4z"/>
<path d="M41.2,12.3c1.3,0,2-0.7,2.5-1.8C46.3,5,51,3.2,56.8,3.2c31.3,0,62.6,0,93.9,0.1c2,0,4,0.2,5.9,0.7c5,1.5,7.7,5,8.3,10.1
	c0.3,2.4,0.1,4.9,0.1,7.3c0,108.7,0,217.5,0,326.2c0,2.8-0.3,5.7,0.5,8.9c1.4,0.2,2.7,0.4,3.9,0.4c1.1,0.1,2.2,0,3.3,0
	c65.2,0,130.5,0,195.7,0c2.4,0,4.8-0.1,7.5-0.2c0.2-1.7,0.5-2.9,0.5-4.2c0.1-2.2,0-4.4,0-6.7c0-108.1,0-216.2,0-324.3
	c0-2.2-0.1-4.4,0-6.7C376.7,8.4,380.7,4,387,3.1c1.5-0.2,3.1-0.2,4.7-0.2c30.4,0,60.8,0,91.2,0c0.7,0,1.3,0,2,0
	c9,0.2,13.5,4.6,13.8,13.5c0.1,1.6,0,3.1,0,4.7c0,121.2,0,242.4,0,363.5c0,2.9,0.1,5.8-0.5,8.6c-1.2,6-6,9.5-12,9.3
	c-5.9-0.2-10.5-4.4-11.1-10.4c-0.3-2.4-0.2-4.9-0.2-7.3c0-78.3,0-156.7,0-235c0-38.4,0-76.8,0-115.2c0-2.4-0.2-4.8-0.3-7.5
	c-8.6-0.9-16.8-0.3-24.9-0.4c-8-0.1-16,0-24,0c-8.2,0-16.4,0-24.9,0c-0.3,1.6-0.7,2.9-0.7,4.1c-0.1,2.2,0,4.4,0,6.7
	c0,107.9,0,215.7,0,323.6c0,2.2,0.1,4.4,0,6.7c-0.4,8.1-4.9,12.5-13.1,12.8c-1.3,0.1-2.7,0-4,0c-75,0-150,0-225,0c-2,0-4,0.1-6-0.2
	c-6.3-0.9-10.4-5.2-10.8-11.6c-0.2-2.2-0.1-4.4-0.1-6.7c0-108.7,0-217.5,0-326.2c0-2.8,0.4-5.7-0.6-8.8c-1.2-0.1-2.2-0.4-3.3-0.4
	c-23.3,0-46.5,0-70.1,0c-0.3,1.7-0.6,2.9-0.7,4.1c-0.1,2.2,0,4.4,0,6.7c0,115.6,0,231.3,0,346.9c0,2.4,0.1,4.9-0.1,7.3
	c-0.5,5-3.7,9-8.1,10.3c-4.9,1.5-9.9-0.1-13.1-4.2c-0.8-1-1.3-2.3-2.1-3.3c-0.3-0.4-1.2-0.3-1.8-0.4
	C41.2,267.1,41.2,139.7,41.2,12.3z"/>
<path d="M578,178.7c2.1,2.2,4.2,4.4,6.3,6.5c72.5,72.5,145,145,217.4,217.5c1.4,1.4,2.9,2.8,4.2,4.2c5.3,5.8,5.1,11.8-0.2,17.7
	c-0.7,0.8-1.6,1.6-2.3,2.3c-73.6,73.6-147.2,147.1-220.7,220.7c-1.2,1.2-2.5,2.6-3.8,3.7c-3.8,3-8.2,3.5-12.5,1.5
	c-4.1-1.9-6.3-5.4-6.7-9.9c-0.1-1.5-0.1-3.1-0.1-4.6c0-64.7,0-129.5,0-194.2c0-1.8-0.1-3.6,0.1-5.3c0.7-6,5.8-10.6,11.7-10.6
	c5.9,0,11,4.5,11.7,10.5c0.3,2.2,0.2,4.4,0.2,6.6c0,53,0,106,0,159.1c0,2.3,0.1,4.8,0.2,6.8c1.5,0.9,2.1,0,2.6-0.6
	c1.5-1.3,2.9-2.8,4.2-4.2c61.7-61.7,123.4-123.4,185.1-185.1c1.8-1.8,4-3.4,5.3-6.3C715.6,350,650.5,284.9,585.3,219.8
	c-0.2-0.2-0.8-0.2-1.5-0.3c-0.8,1.8-0.5,3.7-0.5,5.6c0,26.7,0,53.5,0,80.2s0,53.5,0,80.2c0,2,0.1,4-0.1,6
	c-0.7,6.1-5.6,10.6-11.6,10.6c-6.2,0.1-11.3-4.6-11.9-11.1c-0.1-1.5-0.1-3.1-0.1-4.6c0-64.5,0.1-129-0.1-193.5
	c0-5.6,1.3-10.3,5.3-14.2C569.2,178.7,573.6,178.7,578,178.7z"/>
</svg>
