<?xml version="1.0" encoding="utf-8"?>
<!-- Generator: Adobe Illustrator 22.0.0, SVG Export Plug-In . SVG Version: 6.00 Build 0)  -->
<svg version="1.1" id="Layer_1" xmlns="http://www.w3.org/2000/svg" xmlns:xlink="http://www.w3.org/1999/xlink" x="0px" y="0px"
	 viewBox="0 0 850.4 850.4" style="enable-background:new 0 0 850.4 850.4;" xml:space="preserve">
<style type="text/css">
	.st0{fill:#FFFFFF;}
</style>
<path d="M255.1,0c3.8,3.9,7.5,7.9,11.3,11.7c129.7,129.7,259.4,259.4,389,389.1c2.5,2.5,5.1,5,7.5,7.6c9.4,10.4,9.2,21.1-0.4,31.6
	c-1.3,1.4-2.8,2.8-4.2,4.2C526.7,575.8,395,707.4,263.4,839.1c-2.2,2.2-4.4,4.6-6.8,6.6c-6.8,5.3-14.6,6.2-22.3,2.7
	c-7.4-3.4-11.3-9.6-12-17.7c-0.2-2.7-0.1-5.5-0.1-8.3c0-115.8,0-231.6,0-347.4c0-3.2-0.2-6.4,0.2-9.5c1.3-10.8,10.4-18.9,20.9-19
	c10.5,0,19.6,8,21,18.8c0.5,3.9,0.3,7.9,0.3,11.8c0,94.9,0,189.7,0,284.6c0,4.2,0.2,8.5,0.3,12.2c2.7,1.6,3.7,0,4.7-1
	c2.6-2.4,5.1-5,7.6-7.5C387.6,655,498,544.6,608.3,434.2c3.3-3.3,7.2-6.1,9.5-11.2C501.3,306.5,384.7,190,268.1,73.6
	c-0.4-0.4-1.4-0.3-2.7-0.5c-1.5,3.2-0.9,6.7-0.9,10.1c0,47.8,0,95.7,0,143.5c0,47.8,0,95.7,0,143.5c0,3.6,0.2,7.1-0.2,10.7
	c-1.3,11-10.1,18.9-20.8,19c-11.1,0.1-20.2-8.3-21.2-19.8c-0.2-2.7-0.1-5.5-0.1-8.3c0-115.4,0.1-230.8-0.2-346.2
	c0-10.1,2.3-18.4,9.5-25.4C239.3,0,247.2,0,255.1,0z"/>
</svg>
