<svg height="480pt" viewBox="0 0 480 480.004" width="480pt" xmlns="http://www.w3.org/2000/svg"><path d="m480.003906 92.851562c0-51.191406-41.65625-92.84765575-92.851562-92.84765575-24.796875 0-48.117188 9.65624975-65.65625 27.19140575l-1.671875 1.671876c-9.597657-7.816407-24.621094-7.390626-33.476563 1.480468-9.707031 9.703125-9.730468 25.480469-.074218 35.222656l-29.070313 58.144532-87.191406 110.96875-143.664063 143.664062c-3.128906 3.128906-3.128906 8.183594 0 11.3125l26.34375 26.34375-50.34375 50.34375 11.308594 11.3125 50.347656-50.34375 26.34375 26.34375c1.558594 1.558594 3.605469 2.34375 5.65625 2.34375 2.046875 0 4.09375-.785156 5.652344-2.34375l143.664062-143.65625 110.984376-87.199218 58.128906-29.066407c4.703125 4.664063 10.9375 7.242188 17.570312 7.242188 6.671875 0 12.941406-2.601563 17.652344-7.320313 9.167969-9.167968 9.585938-23.6875 1.488281-33.488281l1.65625-1.65625c17.546875-17.535156 27.203125-40.847656 27.203125-65.664063zm-147.195312-54.34375c14.511718-14.511718 33.816406-22.503906 54.34375-22.503906 42.371094 0 76.851562 34.480469 76.851562 76.847656 0 20.527344-7.992187 39.832032-22.507812 54.34375l-1.492188 1.496094-108.691406-108.6875zm-34.613282 39 104.300782 104.304688-48.917969 24.457031-79.839844-79.839843zm-63.136718 220.207032c-.25.191406-.488282.410156-.710938.632812l-138.34375 138.34375-52.691406-52.6875 138.34375-138.34375c.226562-.222656.441406-.464844.632812-.710937l82.433594-104.914063 75.246094 75.25zm203.289062-115.367188c-3.394531 3.390625-9.296875 3.390625-12.691406 0l-128-128c-3.496094-3.496094-3.496094-9.191406 0-12.6875 1.699219-1.695312 3.945312-2.632812 6.347656-2.632812 2.398438 0 4.644532.9375 6.34375 2.632812l128 128c3.488282 3.496094 3.488282 9.191406 0 12.6875zm0 0"/><path d="m242.34375 226.34375 24.003906-24 11.3125 11.3125-24.003906 24.003906zm0 0"/><path d="m40.003906 192.003906c22.054688 0 40-14.351562 40-32v-81.75l80-20v52.316406c-6.707031-4.0625-14.960937-6.566406-24-6.566406-22.058594 0-40 14.351563-40 32 0 17.648438 17.941406 32 40 32 22.054688 0 40-14.351562 40-32v-128c0-2.464844-1.136718-4.792968-3.082031-6.304687-1.945313-1.519531-4.488281-2.0625-6.855469-1.457031l-96 24c-3.570312.890624-6.0625 4.089843-6.0625 7.761718v102.558594c-6.707031-4.054688-14.960937-6.558594-24-6.558594-22.058594 0-39.99999975 14.351563-39.99999975 32 0 17.648438 17.94140575 32 39.99999975 32zm96-40c-13.011718 0-24-7.328125-24-16s10.988282-16 24-16c13.007813 0 24 7.328125 24 16s-10.992187 16-24 16zm24-133.75v23.503906l-80 20v-23.503906zm-120 125.75c13.007813 0 24 7.328125 24 16s-10.992187 16-24 16c-13.011718 0-24-7.328125-24-16s10.988282-16 24-16zm0 0"/><path d="m384.003906 392.003906c-22.058594 0-40 14.351563-40 32 0 17.648438 17.941406 32 40 32 22.054688 0 40-14.351562 40-32v-128c0-2.464844-1.136718-4.792968-3.082031-6.304687-1.953125-1.519531-4.488281-2.0625-6.855469-1.457031l-96 24c-3.570312.890624-6.0625 4.089843-6.0625 7.761718v102.558594c-6.707031-4.054688-14.960937-6.558594-24-6.558594-22.058594 0-40 14.351563-40 32 0 17.648438 17.941406 32 40 32 22.054688 0 40-14.351562 40-32v-81.75l80-20v52.316406c-6.707031-4.0625-14.960937-6.566406-24-6.566406zm0 48c-13.011718 0-24-7.328125-24-16s10.988282-16 24-16c13.007813 0 24 7.328125 24 16s-10.992187 16-24 16zm-96 24c-13.011718 0-24-7.328125-24-16s10.988282-16 24-16c13.007813 0 24 7.328125 24 16s-10.992187 16-24 16zm40-114.246094v-23.503906l80-20v23.503906zm0 0"/></svg>