<svg xmlns="http://www.w3.org/2000/svg" viewBox="144 2890 14.837 16">
  <path id="music-player" d="M16.738.073a.294.294,0,0,0-.23-.07L7.49,1.17a.291.291,0,0,0-.253.288v10.36a3.019,3.019,0,0,0-2.327-1.054A2.778,2.778,0,0,0,2,13.383,2.778,2.778,0,0,0,4.909,16a2.778,2.778,0,0,0,2.909-2.618c0-.067-.006-.134-.011-.2a.28.28,0,0,0,.011-.056V4.689L16.255,3.6V8.909a3.02,3.02,0,0,0-2.327-1.054,2.778,2.778,0,0,0-2.909,2.618,2.778,2.778,0,0,0,2.909,2.618,2.782,2.782,0,0,0,2.907-2.58s0-.007,0-.011V.291A.29.29,0,0,0,16.738.073ZM4.909,15.419a2.2,2.2,0,0,1-2.327-2.036,2.2,2.2,0,0,1,2.327-2.036,2.2,2.2,0,0,1,2.327,2.036A2.2,2.2,0,0,1,4.909,15.419Zm9.018-2.909A2.2,2.2,0,0,1,11.6,10.473a2.2,2.2,0,0,1,2.327-2.036,2.2,2.2,0,0,1,2.327,2.036A2.2,2.2,0,0,1,13.927,12.51ZM7.818,4.1V1.714L16.255.622V3.011Z" transform="translate(142 2889.999)"/>
</svg>
