<svg xmlns="http://www.w3.org/2000/svg" height="512pt" version="1.1" viewBox="0 0 512 512" width="512pt">
<g id="surface1">
<path d="M 437 149.5 L 397.132812 149.5 C 390.035156 149.5 378.570312 144.765625 373.539062 139.757812 L 281.671875 48.324219 C 250.503906 17.160156 209.070312 0 165 0 C 74.019531 0 0 74.019531 0 165 L 0 511.5 L 512 511.5 L 512 224.5 C 512 183.144531 478.355469 149.5 437 149.5 Z M 165 30 C 201.058594 30 234.957031 44.042969 260.480469 69.5625 L 352.375 161.023438 C 362.957031 171.554688 382.199219 179.5 397.132812 179.5 L 437 179.5 C 461.8125 179.5 482 199.6875 482 224.5 L 482 286.5 L 30 286.5 L 30 165 C 30 90.5625 90.5625 30 165 30 Z M 151 361.5 L 151 316.5 L 361 316.5 L 361 361.5 Z M 121 361.5 L 30 361.5 L 30 316.5 L 121 316.5 Z M 121 391.5 L 121 451.5 L 151 451.5 L 151 391.5 L 181 391.5 L 181 451.5 L 211 451.5 L 211 391.5 L 241 391.5 L 241 451.5 L 271 451.5 L 271 391.5 L 301 391.5 L 301 451.5 L 331 451.5 L 331 391.5 L 361 391.5 L 361 451.5 L 391 451.5 L 391 391.5 L 421 391.5 L 421 481.5 L 91 481.5 L 91 391.5 Z M 391 361.5 L 391 316.5 L 482 316.5 L 482 361.5 Z M 30 391.5 L 61 391.5 L 61 481.5 L 30 481.5 Z M 451 481.5 L 451 391.5 L 482 391.5 L 482 481.5 Z M 451 481.5 " style=" stroke:none;fill-rule:nonzero;fill:rgb(0%,0%,0%);fill-opacity:1;" />
</g>
</svg>